<mxfile host="65bd71144e">
    <diagram name="Page-1" id="3AuWijra6MYElS49g0Dx">
        <mxGraphModel dx="231" dy="207" grid="1" gridSize="10" guides="1" tooltips="1" connect="1" arrows="1" fold="1" page="1" pageScale="1" pageWidth="850" pageHeight="1100" math="0" shadow="0">
            <root>
                <mxCell id="0"/>
                <mxCell id="1" parent="0"/>
                <mxCell id="A4zvuaYf1DdcraZO9j4I-35" value="Riders" style="shape=table;startSize=40;container=1;collapsible=0;childLayout=tableLayout;fixedRows=1;rowLines=0;fontStyle=0;strokeColor=#0F8B8D;fontSize=16;labelBackgroundColor=none;fillColor=#FAE5C7;fontColor=#143642;" parent="1" vertex="1">
                    <mxGeometry x="560" y="80" width="180" height="440" as="geometry"/>
                </mxCell>
                <mxCell id="A4zvuaYf1DdcraZO9j4I-79" style="shape=tableRow;horizontal=0;startSize=0;swimlaneHead=0;swimlaneBody=0;top=0;left=0;bottom=0;right=0;collapsible=0;dropTarget=0;fillColor=none;points=[[0,0.5],[1,0.5]];portConstraint=eastwest;strokeColor=#0F8B8D;fontSize=16;labelBackgroundColor=none;fontColor=#143642;" parent="A4zvuaYf1DdcraZO9j4I-35" vertex="1">
                    <mxGeometry y="40" width="180" height="40" as="geometry"/>
                </mxCell>
                <mxCell id="A4zvuaYf1DdcraZO9j4I-80" value="1" style="shape=partialRectangle;html=1;whiteSpace=wrap;connectable=0;fillColor=none;top=0;left=0;bottom=0;right=0;overflow=hidden;pointerEvents=1;strokeColor=#0F8B8D;fontSize=16;labelBackgroundColor=none;fontColor=#143642;" parent="A4zvuaYf1DdcraZO9j4I-79" vertex="1">
                    <mxGeometry width="40" height="40" as="geometry">
                        <mxRectangle width="40" height="40" as="alternateBounds"/>
                    </mxGeometry>
                </mxCell>
                <mxCell id="A4zvuaYf1DdcraZO9j4I-81" value="id" style="shape=partialRectangle;html=1;whiteSpace=wrap;connectable=0;fillColor=none;top=0;left=0;bottom=0;right=0;align=left;spacingLeft=6;overflow=hidden;strokeColor=#0F8B8D;fontSize=16;labelBackgroundColor=none;fontColor=#143642;" parent="A4zvuaYf1DdcraZO9j4I-79" vertex="1">
                    <mxGeometry x="40" width="140" height="40" as="geometry">
                        <mxRectangle width="140" height="40" as="alternateBounds"/>
                    </mxGeometry>
                </mxCell>
                <mxCell id="A4zvuaYf1DdcraZO9j4I-82" style="shape=tableRow;horizontal=0;startSize=0;swimlaneHead=0;swimlaneBody=0;top=0;left=0;bottom=0;right=0;collapsible=0;dropTarget=0;fillColor=none;points=[[0,0.5],[1,0.5]];portConstraint=eastwest;strokeColor=#0F8B8D;fontSize=16;labelBackgroundColor=none;fontColor=#143642;" parent="A4zvuaYf1DdcraZO9j4I-35" vertex="1">
                    <mxGeometry y="80" width="180" height="40" as="geometry"/>
                </mxCell>
                <mxCell id="A4zvuaYf1DdcraZO9j4I-83" value="2" style="shape=partialRectangle;html=1;whiteSpace=wrap;connectable=0;fillColor=none;top=0;left=0;bottom=0;right=0;overflow=hidden;pointerEvents=1;strokeColor=#0F8B8D;fontSize=16;labelBackgroundColor=none;fontColor=#143642;" parent="A4zvuaYf1DdcraZO9j4I-82" vertex="1">
                    <mxGeometry width="40" height="40" as="geometry">
                        <mxRectangle width="40" height="40" as="alternateBounds"/>
                    </mxGeometry>
                </mxCell>
                <mxCell id="A4zvuaYf1DdcraZO9j4I-84" value="first_name" style="shape=partialRectangle;html=1;whiteSpace=wrap;connectable=0;fillColor=none;top=0;left=0;bottom=0;right=0;align=left;spacingLeft=6;overflow=hidden;strokeColor=#0F8B8D;fontSize=16;labelBackgroundColor=none;fontColor=#143642;" parent="A4zvuaYf1DdcraZO9j4I-82" vertex="1">
                    <mxGeometry x="40" width="140" height="40" as="geometry">
                        <mxRectangle width="140" height="40" as="alternateBounds"/>
                    </mxGeometry>
                </mxCell>
                <mxCell id="A4zvuaYf1DdcraZO9j4I-85" style="shape=tableRow;horizontal=0;startSize=0;swimlaneHead=0;swimlaneBody=0;top=0;left=0;bottom=0;right=0;collapsible=0;dropTarget=0;fillColor=none;points=[[0,0.5],[1,0.5]];portConstraint=eastwest;strokeColor=#0F8B8D;fontSize=16;labelBackgroundColor=none;fontColor=#143642;" parent="A4zvuaYf1DdcraZO9j4I-35" vertex="1">
                    <mxGeometry y="120" width="180" height="40" as="geometry"/>
                </mxCell>
                <mxCell id="A4zvuaYf1DdcraZO9j4I-86" value="3" style="shape=partialRectangle;html=1;whiteSpace=wrap;connectable=0;fillColor=none;top=0;left=0;bottom=0;right=0;overflow=hidden;pointerEvents=1;strokeColor=#0F8B8D;fontSize=16;labelBackgroundColor=none;fontColor=#143642;" parent="A4zvuaYf1DdcraZO9j4I-85" vertex="1">
                    <mxGeometry width="40" height="40" as="geometry">
                        <mxRectangle width="40" height="40" as="alternateBounds"/>
                    </mxGeometry>
                </mxCell>
                <mxCell id="A4zvuaYf1DdcraZO9j4I-87" value="last_name" style="shape=partialRectangle;html=1;whiteSpace=wrap;connectable=0;fillColor=none;top=0;left=0;bottom=0;right=0;align=left;spacingLeft=6;overflow=hidden;strokeColor=#0F8B8D;fontSize=16;labelBackgroundColor=none;fontColor=#143642;" parent="A4zvuaYf1DdcraZO9j4I-85" vertex="1">
                    <mxGeometry x="40" width="140" height="40" as="geometry">
                        <mxRectangle width="140" height="40" as="alternateBounds"/>
                    </mxGeometry>
                </mxCell>
                <mxCell id="A4zvuaYf1DdcraZO9j4I-88" style="shape=tableRow;horizontal=0;startSize=0;swimlaneHead=0;swimlaneBody=0;top=0;left=0;bottom=0;right=0;collapsible=0;dropTarget=0;fillColor=none;points=[[0,0.5],[1,0.5]];portConstraint=eastwest;strokeColor=#0F8B8D;fontSize=16;labelBackgroundColor=none;fontColor=#143642;" parent="A4zvuaYf1DdcraZO9j4I-35" vertex="1">
                    <mxGeometry y="160" width="180" height="40" as="geometry"/>
                </mxCell>
                <mxCell id="A4zvuaYf1DdcraZO9j4I-89" value="4" style="shape=partialRectangle;html=1;whiteSpace=wrap;connectable=0;fillColor=none;top=0;left=0;bottom=0;right=0;overflow=hidden;pointerEvents=1;strokeColor=#0F8B8D;fontSize=16;labelBackgroundColor=none;fontColor=#143642;" parent="A4zvuaYf1DdcraZO9j4I-88" vertex="1">
                    <mxGeometry width="40" height="40" as="geometry">
                        <mxRectangle width="40" height="40" as="alternateBounds"/>
                    </mxGeometry>
                </mxCell>
                <mxCell id="A4zvuaYf1DdcraZO9j4I-90" value="location" style="shape=partialRectangle;html=1;whiteSpace=wrap;connectable=0;fillColor=none;top=0;left=0;bottom=0;right=0;align=left;spacingLeft=6;overflow=hidden;strokeColor=#0F8B8D;fontSize=16;labelBackgroundColor=none;fontColor=#143642;" parent="A4zvuaYf1DdcraZO9j4I-88" vertex="1">
                    <mxGeometry x="40" width="140" height="40" as="geometry">
                        <mxRectangle width="140" height="40" as="alternateBounds"/>
                    </mxGeometry>
                </mxCell>
                <mxCell id="A4zvuaYf1DdcraZO9j4I-36" value="" style="shape=tableRow;horizontal=0;startSize=0;swimlaneHead=0;swimlaneBody=0;top=0;left=0;bottom=0;right=0;collapsible=0;dropTarget=0;fillColor=none;points=[[0,0.5],[1,0.5]];portConstraint=eastwest;strokeColor=#0F8B8D;fontSize=16;labelBackgroundColor=none;fontColor=#143642;" parent="A4zvuaYf1DdcraZO9j4I-35" vertex="1">
                    <mxGeometry y="200" width="180" height="40" as="geometry"/>
                </mxCell>
                <mxCell id="A4zvuaYf1DdcraZO9j4I-37" value="5" style="shape=partialRectangle;html=1;whiteSpace=wrap;connectable=0;fillColor=none;top=0;left=0;bottom=0;right=0;overflow=hidden;pointerEvents=1;strokeColor=#0F8B8D;fontSize=16;labelBackgroundColor=none;fontColor=#143642;" parent="A4zvuaYf1DdcraZO9j4I-36" vertex="1">
                    <mxGeometry width="40" height="40" as="geometry">
                        <mxRectangle width="40" height="40" as="alternateBounds"/>
                    </mxGeometry>
                </mxCell>
                <mxCell id="A4zvuaYf1DdcraZO9j4I-38" value="avatar" style="shape=partialRectangle;html=1;whiteSpace=wrap;connectable=0;fillColor=none;top=0;left=0;bottom=0;right=0;align=left;spacingLeft=6;overflow=hidden;strokeColor=#0F8B8D;fontSize=16;labelBackgroundColor=none;fontColor=#143642;" parent="A4zvuaYf1DdcraZO9j4I-36" vertex="1">
                    <mxGeometry x="40" width="140" height="40" as="geometry">
                        <mxRectangle width="140" height="40" as="alternateBounds"/>
                    </mxGeometry>
                </mxCell>
                <mxCell id="A4zvuaYf1DdcraZO9j4I-97" value="" style="shape=tableRow;horizontal=0;startSize=0;swimlaneHead=0;swimlaneBody=0;top=0;left=0;bottom=0;right=0;collapsible=0;dropTarget=0;fillColor=none;points=[[0,0.5],[1,0.5]];portConstraint=eastwest;strokeColor=#0F8B8D;fontSize=16;labelBackgroundColor=none;fontColor=#143642;" parent="A4zvuaYf1DdcraZO9j4I-35" vertex="1">
                    <mxGeometry y="240" width="180" height="40" as="geometry"/>
                </mxCell>
                <mxCell id="A4zvuaYf1DdcraZO9j4I-98" value="6" style="shape=partialRectangle;html=1;whiteSpace=wrap;connectable=0;fillColor=none;top=0;left=0;bottom=0;right=0;overflow=hidden;pointerEvents=1;strokeColor=#0F8B8D;fontSize=16;labelBackgroundColor=none;fontColor=#143642;" parent="A4zvuaYf1DdcraZO9j4I-97" vertex="1">
                    <mxGeometry width="40" height="40" as="geometry">
                        <mxRectangle width="40" height="40" as="alternateBounds"/>
                    </mxGeometry>
                </mxCell>
                <mxCell id="A4zvuaYf1DdcraZO9j4I-99" value="email" style="shape=partialRectangle;html=1;whiteSpace=wrap;connectable=0;fillColor=none;top=0;left=0;bottom=0;right=0;align=left;spacingLeft=6;overflow=hidden;strokeColor=#0F8B8D;fontSize=16;labelBackgroundColor=none;fontColor=#143642;" parent="A4zvuaYf1DdcraZO9j4I-97" vertex="1">
                    <mxGeometry x="40" width="140" height="40" as="geometry">
                        <mxRectangle width="140" height="40" as="alternateBounds"/>
                    </mxGeometry>
                </mxCell>
                <mxCell id="A4zvuaYf1DdcraZO9j4I-100" style="shape=tableRow;horizontal=0;startSize=0;swimlaneHead=0;swimlaneBody=0;top=0;left=0;bottom=0;right=0;collapsible=0;dropTarget=0;fillColor=none;points=[[0,0.5],[1,0.5]];portConstraint=eastwest;strokeColor=#0F8B8D;fontSize=16;labelBackgroundColor=none;fontColor=#143642;" parent="A4zvuaYf1DdcraZO9j4I-35" vertex="1">
                    <mxGeometry y="280" width="180" height="40" as="geometry"/>
                </mxCell>
                <mxCell id="A4zvuaYf1DdcraZO9j4I-101" value="7" style="shape=partialRectangle;html=1;whiteSpace=wrap;connectable=0;fillColor=none;top=0;left=0;bottom=0;right=0;overflow=hidden;pointerEvents=1;strokeColor=#0F8B8D;fontSize=16;labelBackgroundColor=none;fontColor=#143642;" parent="A4zvuaYf1DdcraZO9j4I-100" vertex="1">
                    <mxGeometry width="40" height="40" as="geometry">
                        <mxRectangle width="40" height="40" as="alternateBounds"/>
                    </mxGeometry>
                </mxCell>
                <mxCell id="A4zvuaYf1DdcraZO9j4I-102" value="phone_number" style="shape=partialRectangle;html=1;whiteSpace=wrap;connectable=0;fillColor=none;top=0;left=0;bottom=0;right=0;align=left;spacingLeft=6;overflow=hidden;strokeColor=#0F8B8D;fontSize=16;labelBackgroundColor=none;fontColor=#143642;" parent="A4zvuaYf1DdcraZO9j4I-100" vertex="1">
                    <mxGeometry x="40" width="140" height="40" as="geometry">
                        <mxRectangle width="140" height="40" as="alternateBounds"/>
                    </mxGeometry>
                </mxCell>
                <mxCell id="A4zvuaYf1DdcraZO9j4I-109" style="shape=tableRow;horizontal=0;startSize=0;swimlaneHead=0;swimlaneBody=0;top=0;left=0;bottom=0;right=0;collapsible=0;dropTarget=0;fillColor=none;points=[[0,0.5],[1,0.5]];portConstraint=eastwest;strokeColor=#0F8B8D;fontSize=16;labelBackgroundColor=none;fontColor=#143642;" parent="A4zvuaYf1DdcraZO9j4I-35" vertex="1">
                    <mxGeometry y="320" width="180" height="40" as="geometry"/>
                </mxCell>
                <mxCell id="A4zvuaYf1DdcraZO9j4I-110" value="8" style="shape=partialRectangle;html=1;whiteSpace=wrap;connectable=0;fillColor=none;top=0;left=0;bottom=0;right=0;overflow=hidden;pointerEvents=1;strokeColor=#0F8B8D;fontSize=16;labelBackgroundColor=none;fontColor=#143642;" parent="A4zvuaYf1DdcraZO9j4I-109" vertex="1">
                    <mxGeometry width="40" height="40" as="geometry">
                        <mxRectangle width="40" height="40" as="alternateBounds"/>
                    </mxGeometry>
                </mxCell>
                <mxCell id="A4zvuaYf1DdcraZO9j4I-111" value="id_number" style="shape=partialRectangle;html=1;whiteSpace=wrap;connectable=0;fillColor=none;top=0;left=0;bottom=0;right=0;align=left;spacingLeft=6;overflow=hidden;strokeColor=#0F8B8D;fontSize=16;labelBackgroundColor=none;fontColor=#143642;" parent="A4zvuaYf1DdcraZO9j4I-109" vertex="1">
                    <mxGeometry x="40" width="140" height="40" as="geometry">
                        <mxRectangle width="140" height="40" as="alternateBounds"/>
                    </mxGeometry>
                </mxCell>
                <mxCell id="A4zvuaYf1DdcraZO9j4I-106" style="shape=tableRow;horizontal=0;startSize=0;swimlaneHead=0;swimlaneBody=0;top=0;left=0;bottom=0;right=0;collapsible=0;dropTarget=0;fillColor=none;points=[[0,0.5],[1,0.5]];portConstraint=eastwest;strokeColor=#0F8B8D;fontSize=16;labelBackgroundColor=none;fontColor=#143642;" parent="A4zvuaYf1DdcraZO9j4I-35" vertex="1">
                    <mxGeometry y="360" width="180" height="40" as="geometry"/>
                </mxCell>
                <mxCell id="A4zvuaYf1DdcraZO9j4I-107" value="9" style="shape=partialRectangle;html=1;whiteSpace=wrap;connectable=0;fillColor=none;top=0;left=0;bottom=0;right=0;overflow=hidden;pointerEvents=1;strokeColor=#0F8B8D;fontSize=16;labelBackgroundColor=none;fontColor=#143642;" parent="A4zvuaYf1DdcraZO9j4I-106" vertex="1">
                    <mxGeometry width="40" height="40" as="geometry">
                        <mxRectangle width="40" height="40" as="alternateBounds"/>
                    </mxGeometry>
                </mxCell>
                <mxCell id="A4zvuaYf1DdcraZO9j4I-108" value="licence_number" style="shape=partialRectangle;html=1;whiteSpace=wrap;connectable=0;fillColor=none;top=0;left=0;bottom=0;right=0;align=left;spacingLeft=6;overflow=hidden;strokeColor=#0F8B8D;fontSize=16;labelBackgroundColor=none;fontColor=#143642;" parent="A4zvuaYf1DdcraZO9j4I-106" vertex="1">
                    <mxGeometry x="40" width="140" height="40" as="geometry">
                        <mxRectangle width="140" height="40" as="alternateBounds"/>
                    </mxGeometry>
                </mxCell>
                <mxCell id="A4zvuaYf1DdcraZO9j4I-103" style="shape=tableRow;horizontal=0;startSize=0;swimlaneHead=0;swimlaneBody=0;top=0;left=0;bottom=0;right=0;collapsible=0;dropTarget=0;fillColor=none;points=[[0,0.5],[1,0.5]];portConstraint=eastwest;strokeColor=#0F8B8D;fontSize=16;labelBackgroundColor=none;fontColor=#143642;" parent="A4zvuaYf1DdcraZO9j4I-35" vertex="1">
                    <mxGeometry y="400" width="180" height="40" as="geometry"/>
                </mxCell>
                <mxCell id="A4zvuaYf1DdcraZO9j4I-104" value="10" style="shape=partialRectangle;html=1;whiteSpace=wrap;connectable=0;fillColor=none;top=0;left=0;bottom=0;right=0;overflow=hidden;pointerEvents=1;strokeColor=#0F8B8D;fontSize=16;labelBackgroundColor=none;fontColor=#143642;" parent="A4zvuaYf1DdcraZO9j4I-103" vertex="1">
                    <mxGeometry width="40" height="40" as="geometry">
                        <mxRectangle width="40" height="40" as="alternateBounds"/>
                    </mxGeometry>
                </mxCell>
                <mxCell id="A4zvuaYf1DdcraZO9j4I-105" value="spouse_contact" style="shape=partialRectangle;html=1;whiteSpace=wrap;connectable=0;fillColor=none;top=0;left=0;bottom=0;right=0;align=left;spacingLeft=6;overflow=hidden;strokeColor=#0F8B8D;fontSize=16;labelBackgroundColor=none;fontColor=#143642;" parent="A4zvuaYf1DdcraZO9j4I-103" vertex="1">
                    <mxGeometry x="40" width="140" height="40" as="geometry">
                        <mxRectangle width="140" height="40" as="alternateBounds"/>
                    </mxGeometry>
                </mxCell>
                <mxCell id="A4zvuaYf1DdcraZO9j4I-113" value="Owners" style="shape=table;startSize=40;container=1;collapsible=0;childLayout=tableLayout;fixedRows=1;rowLines=0;fontStyle=0;strokeColor=#0F8B8D;fontSize=16;labelBackgroundColor=none;fillColor=#FAE5C7;fontColor=#143642;" parent="1" vertex="1">
                    <mxGeometry x="60" y="80" width="180" height="320" as="geometry"/>
                </mxCell>
                <mxCell id="A4zvuaYf1DdcraZO9j4I-114" style="shape=tableRow;horizontal=0;startSize=0;swimlaneHead=0;swimlaneBody=0;top=0;left=0;bottom=0;right=0;collapsible=0;dropTarget=0;fillColor=none;points=[[0,0.5],[1,0.5]];portConstraint=eastwest;strokeColor=#0F8B8D;fontSize=16;labelBackgroundColor=none;fontColor=#143642;" parent="A4zvuaYf1DdcraZO9j4I-113" vertex="1">
                    <mxGeometry y="40" width="180" height="40" as="geometry"/>
                </mxCell>
                <mxCell id="A4zvuaYf1DdcraZO9j4I-115" value="1" style="shape=partialRectangle;html=1;whiteSpace=wrap;connectable=0;fillColor=none;top=0;left=0;bottom=0;right=0;overflow=hidden;pointerEvents=1;strokeColor=#0F8B8D;fontSize=16;labelBackgroundColor=none;fontColor=#143642;" parent="A4zvuaYf1DdcraZO9j4I-114" vertex="1">
                    <mxGeometry width="40" height="40" as="geometry">
                        <mxRectangle width="40" height="40" as="alternateBounds"/>
                    </mxGeometry>
                </mxCell>
                <mxCell id="A4zvuaYf1DdcraZO9j4I-116" value="id" style="shape=partialRectangle;html=1;whiteSpace=wrap;connectable=0;fillColor=none;top=0;left=0;bottom=0;right=0;align=left;spacingLeft=6;overflow=hidden;strokeColor=#0F8B8D;fontSize=16;labelBackgroundColor=none;fontColor=#143642;" parent="A4zvuaYf1DdcraZO9j4I-114" vertex="1">
                    <mxGeometry x="40" width="140" height="40" as="geometry">
                        <mxRectangle width="140" height="40" as="alternateBounds"/>
                    </mxGeometry>
                </mxCell>
                <mxCell id="A4zvuaYf1DdcraZO9j4I-117" style="shape=tableRow;horizontal=0;startSize=0;swimlaneHead=0;swimlaneBody=0;top=0;left=0;bottom=0;right=0;collapsible=0;dropTarget=0;fillColor=none;points=[[0,0.5],[1,0.5]];portConstraint=eastwest;strokeColor=#0F8B8D;fontSize=16;labelBackgroundColor=none;fontColor=#143642;" parent="A4zvuaYf1DdcraZO9j4I-113" vertex="1">
                    <mxGeometry y="80" width="180" height="40" as="geometry"/>
                </mxCell>
                <mxCell id="A4zvuaYf1DdcraZO9j4I-118" value="2" style="shape=partialRectangle;html=1;whiteSpace=wrap;connectable=0;fillColor=none;top=0;left=0;bottom=0;right=0;overflow=hidden;pointerEvents=1;strokeColor=#0F8B8D;fontSize=16;labelBackgroundColor=none;fontColor=#143642;" parent="A4zvuaYf1DdcraZO9j4I-117" vertex="1">
                    <mxGeometry width="40" height="40" as="geometry">
                        <mxRectangle width="40" height="40" as="alternateBounds"/>
                    </mxGeometry>
                </mxCell>
                <mxCell id="A4zvuaYf1DdcraZO9j4I-119" value="first_name" style="shape=partialRectangle;html=1;whiteSpace=wrap;connectable=0;fillColor=none;top=0;left=0;bottom=0;right=0;align=left;spacingLeft=6;overflow=hidden;strokeColor=#0F8B8D;fontSize=16;labelBackgroundColor=none;fontColor=#143642;" parent="A4zvuaYf1DdcraZO9j4I-117" vertex="1">
                    <mxGeometry x="40" width="140" height="40" as="geometry">
                        <mxRectangle width="140" height="40" as="alternateBounds"/>
                    </mxGeometry>
                </mxCell>
                <mxCell id="A4zvuaYf1DdcraZO9j4I-120" style="shape=tableRow;horizontal=0;startSize=0;swimlaneHead=0;swimlaneBody=0;top=0;left=0;bottom=0;right=0;collapsible=0;dropTarget=0;fillColor=none;points=[[0,0.5],[1,0.5]];portConstraint=eastwest;strokeColor=#0F8B8D;fontSize=16;labelBackgroundColor=none;fontColor=#143642;" parent="A4zvuaYf1DdcraZO9j4I-113" vertex="1">
                    <mxGeometry y="120" width="180" height="40" as="geometry"/>
                </mxCell>
                <mxCell id="A4zvuaYf1DdcraZO9j4I-121" value="3" style="shape=partialRectangle;html=1;whiteSpace=wrap;connectable=0;fillColor=none;top=0;left=0;bottom=0;right=0;overflow=hidden;pointerEvents=1;strokeColor=#0F8B8D;fontSize=16;labelBackgroundColor=none;fontColor=#143642;" parent="A4zvuaYf1DdcraZO9j4I-120" vertex="1">
                    <mxGeometry width="40" height="40" as="geometry">
                        <mxRectangle width="40" height="40" as="alternateBounds"/>
                    </mxGeometry>
                </mxCell>
                <mxCell id="A4zvuaYf1DdcraZO9j4I-122" value="last_name" style="shape=partialRectangle;html=1;whiteSpace=wrap;connectable=0;fillColor=none;top=0;left=0;bottom=0;right=0;align=left;spacingLeft=6;overflow=hidden;strokeColor=#0F8B8D;fontSize=16;labelBackgroundColor=none;fontColor=#143642;" parent="A4zvuaYf1DdcraZO9j4I-120" vertex="1">
                    <mxGeometry x="40" width="140" height="40" as="geometry">
                        <mxRectangle width="140" height="40" as="alternateBounds"/>
                    </mxGeometry>
                </mxCell>
                <mxCell id="A4zvuaYf1DdcraZO9j4I-123" style="shape=tableRow;horizontal=0;startSize=0;swimlaneHead=0;swimlaneBody=0;top=0;left=0;bottom=0;right=0;collapsible=0;dropTarget=0;fillColor=none;points=[[0,0.5],[1,0.5]];portConstraint=eastwest;strokeColor=#0F8B8D;fontSize=16;labelBackgroundColor=none;fontColor=#143642;" parent="A4zvuaYf1DdcraZO9j4I-113" vertex="1">
                    <mxGeometry y="160" width="180" height="40" as="geometry"/>
                </mxCell>
                <mxCell id="A4zvuaYf1DdcraZO9j4I-124" value="4" style="shape=partialRectangle;html=1;whiteSpace=wrap;connectable=0;fillColor=none;top=0;left=0;bottom=0;right=0;overflow=hidden;pointerEvents=1;strokeColor=#0F8B8D;fontSize=16;labelBackgroundColor=none;fontColor=#143642;" parent="A4zvuaYf1DdcraZO9j4I-123" vertex="1">
                    <mxGeometry width="40" height="40" as="geometry">
                        <mxRectangle width="40" height="40" as="alternateBounds"/>
                    </mxGeometry>
                </mxCell>
                <mxCell id="A4zvuaYf1DdcraZO9j4I-125" value="location" style="shape=partialRectangle;html=1;whiteSpace=wrap;connectable=0;fillColor=none;top=0;left=0;bottom=0;right=0;align=left;spacingLeft=6;overflow=hidden;strokeColor=#0F8B8D;fontSize=16;labelBackgroundColor=none;fontColor=#143642;" parent="A4zvuaYf1DdcraZO9j4I-123" vertex="1">
                    <mxGeometry x="40" width="140" height="40" as="geometry">
                        <mxRectangle width="140" height="40" as="alternateBounds"/>
                    </mxGeometry>
                </mxCell>
                <mxCell id="A4zvuaYf1DdcraZO9j4I-126" value="" style="shape=tableRow;horizontal=0;startSize=0;swimlaneHead=0;swimlaneBody=0;top=0;left=0;bottom=0;right=0;collapsible=0;dropTarget=0;fillColor=none;points=[[0,0.5],[1,0.5]];portConstraint=eastwest;strokeColor=#0F8B8D;fontSize=16;labelBackgroundColor=none;fontColor=#143642;" parent="A4zvuaYf1DdcraZO9j4I-113" vertex="1">
                    <mxGeometry y="200" width="180" height="40" as="geometry"/>
                </mxCell>
                <mxCell id="A4zvuaYf1DdcraZO9j4I-127" value="5" style="shape=partialRectangle;html=1;whiteSpace=wrap;connectable=0;fillColor=none;top=0;left=0;bottom=0;right=0;overflow=hidden;pointerEvents=1;strokeColor=#0F8B8D;fontSize=16;labelBackgroundColor=none;fontColor=#143642;" parent="A4zvuaYf1DdcraZO9j4I-126" vertex="1">
                    <mxGeometry width="40" height="40" as="geometry">
                        <mxRectangle width="40" height="40" as="alternateBounds"/>
                    </mxGeometry>
                </mxCell>
                <mxCell id="A4zvuaYf1DdcraZO9j4I-128" value="avatar" style="shape=partialRectangle;html=1;whiteSpace=wrap;connectable=0;fillColor=none;top=0;left=0;bottom=0;right=0;align=left;spacingLeft=6;overflow=hidden;strokeColor=#0F8B8D;fontSize=16;labelBackgroundColor=none;fontColor=#143642;" parent="A4zvuaYf1DdcraZO9j4I-126" vertex="1">
                    <mxGeometry x="40" width="140" height="40" as="geometry">
                        <mxRectangle width="140" height="40" as="alternateBounds"/>
                    </mxGeometry>
                </mxCell>
                <mxCell id="A4zvuaYf1DdcraZO9j4I-129" value="" style="shape=tableRow;horizontal=0;startSize=0;swimlaneHead=0;swimlaneBody=0;top=0;left=0;bottom=0;right=0;collapsible=0;dropTarget=0;fillColor=none;points=[[0,0.5],[1,0.5]];portConstraint=eastwest;strokeColor=#0F8B8D;fontSize=16;labelBackgroundColor=none;fontColor=#143642;" parent="A4zvuaYf1DdcraZO9j4I-113" vertex="1">
                    <mxGeometry y="240" width="180" height="40" as="geometry"/>
                </mxCell>
                <mxCell id="A4zvuaYf1DdcraZO9j4I-130" value="6" style="shape=partialRectangle;html=1;whiteSpace=wrap;connectable=0;fillColor=none;top=0;left=0;bottom=0;right=0;overflow=hidden;pointerEvents=1;strokeColor=#0F8B8D;fontSize=16;labelBackgroundColor=none;fontColor=#143642;" parent="A4zvuaYf1DdcraZO9j4I-129" vertex="1">
                    <mxGeometry width="40" height="40" as="geometry">
                        <mxRectangle width="40" height="40" as="alternateBounds"/>
                    </mxGeometry>
                </mxCell>
                <mxCell id="A4zvuaYf1DdcraZO9j4I-131" value="email" style="shape=partialRectangle;html=1;whiteSpace=wrap;connectable=0;fillColor=none;top=0;left=0;bottom=0;right=0;align=left;spacingLeft=6;overflow=hidden;strokeColor=#0F8B8D;fontSize=16;labelBackgroundColor=none;fontColor=#143642;" parent="A4zvuaYf1DdcraZO9j4I-129" vertex="1">
                    <mxGeometry x="40" width="140" height="40" as="geometry">
                        <mxRectangle width="140" height="40" as="alternateBounds"/>
                    </mxGeometry>
                </mxCell>
                <mxCell id="A4zvuaYf1DdcraZO9j4I-132" style="shape=tableRow;horizontal=0;startSize=0;swimlaneHead=0;swimlaneBody=0;top=0;left=0;bottom=0;right=0;collapsible=0;dropTarget=0;fillColor=none;points=[[0,0.5],[1,0.5]];portConstraint=eastwest;strokeColor=#0F8B8D;fontSize=16;labelBackgroundColor=none;fontColor=#143642;" parent="A4zvuaYf1DdcraZO9j4I-113" vertex="1">
                    <mxGeometry y="280" width="180" height="40" as="geometry"/>
                </mxCell>
                <mxCell id="A4zvuaYf1DdcraZO9j4I-133" value="7" style="shape=partialRectangle;html=1;whiteSpace=wrap;connectable=0;fillColor=none;top=0;left=0;bottom=0;right=0;overflow=hidden;pointerEvents=1;strokeColor=#0F8B8D;fontSize=16;labelBackgroundColor=none;fontColor=#143642;" parent="A4zvuaYf1DdcraZO9j4I-132" vertex="1">
                    <mxGeometry width="40" height="40" as="geometry">
                        <mxRectangle width="40" height="40" as="alternateBounds"/>
                    </mxGeometry>
                </mxCell>
                <mxCell id="A4zvuaYf1DdcraZO9j4I-134" value="phone_number" style="shape=partialRectangle;html=1;whiteSpace=wrap;connectable=0;fillColor=none;top=0;left=0;bottom=0;right=0;align=left;spacingLeft=6;overflow=hidden;strokeColor=#0F8B8D;fontSize=16;labelBackgroundColor=none;fontColor=#143642;" parent="A4zvuaYf1DdcraZO9j4I-132" vertex="1">
                    <mxGeometry x="40" width="140" height="40" as="geometry">
                        <mxRectangle width="140" height="40" as="alternateBounds"/>
                    </mxGeometry>
                </mxCell>
                <mxCell id="A4zvuaYf1DdcraZO9j4I-144" value="Bikes" style="shape=table;startSize=40;container=1;collapsible=0;childLayout=tableLayout;fixedRows=1;rowLines=0;fontStyle=0;strokeColor=#0F8B8D;fontSize=16;labelBackgroundColor=none;fillColor=#FAE5C7;fontColor=#143642;" parent="1" vertex="1">
                    <mxGeometry x="300" y="290" width="180" height="360" as="geometry"/>
                </mxCell>
                <mxCell id="A4zvuaYf1DdcraZO9j4I-145" style="shape=tableRow;horizontal=0;startSize=0;swimlaneHead=0;swimlaneBody=0;top=0;left=0;bottom=0;right=0;collapsible=0;dropTarget=0;fillColor=none;points=[[0,0.5],[1,0.5]];portConstraint=eastwest;strokeColor=#0F8B8D;fontSize=16;labelBackgroundColor=none;fontColor=#143642;" parent="A4zvuaYf1DdcraZO9j4I-144" vertex="1">
                    <mxGeometry y="40" width="180" height="40" as="geometry"/>
                </mxCell>
                <mxCell id="A4zvuaYf1DdcraZO9j4I-146" value="1" style="shape=partialRectangle;html=1;whiteSpace=wrap;connectable=0;fillColor=none;top=0;left=0;bottom=0;right=0;overflow=hidden;pointerEvents=1;strokeColor=#0F8B8D;fontSize=16;labelBackgroundColor=none;fontColor=#143642;" parent="A4zvuaYf1DdcraZO9j4I-145" vertex="1">
                    <mxGeometry width="40" height="40" as="geometry">
                        <mxRectangle width="40" height="40" as="alternateBounds"/>
                    </mxGeometry>
                </mxCell>
                <mxCell id="A4zvuaYf1DdcraZO9j4I-147" value="id" style="shape=partialRectangle;html=1;whiteSpace=wrap;connectable=0;fillColor=none;top=0;left=0;bottom=0;right=0;align=left;spacingLeft=6;overflow=hidden;strokeColor=#0F8B8D;fontSize=16;labelBackgroundColor=none;fontColor=#143642;" parent="A4zvuaYf1DdcraZO9j4I-145" vertex="1">
                    <mxGeometry x="40" width="140" height="40" as="geometry">
                        <mxRectangle width="140" height="40" as="alternateBounds"/>
                    </mxGeometry>
                </mxCell>
                <mxCell id="A4zvuaYf1DdcraZO9j4I-148" style="shape=tableRow;horizontal=0;startSize=0;swimlaneHead=0;swimlaneBody=0;top=0;left=0;bottom=0;right=0;collapsible=0;dropTarget=0;fillColor=none;points=[[0,0.5],[1,0.5]];portConstraint=eastwest;strokeColor=#0F8B8D;fontSize=16;labelBackgroundColor=none;fontColor=#143642;" parent="A4zvuaYf1DdcraZO9j4I-144" vertex="1">
                    <mxGeometry y="80" width="180" height="40" as="geometry"/>
                </mxCell>
                <mxCell id="A4zvuaYf1DdcraZO9j4I-149" value="2" style="shape=partialRectangle;html=1;whiteSpace=wrap;connectable=0;fillColor=none;top=0;left=0;bottom=0;right=0;overflow=hidden;pointerEvents=1;strokeColor=#0F8B8D;fontSize=16;labelBackgroundColor=none;fontColor=#143642;" parent="A4zvuaYf1DdcraZO9j4I-148" vertex="1">
                    <mxGeometry width="40" height="40" as="geometry">
                        <mxRectangle width="40" height="40" as="alternateBounds"/>
                    </mxGeometry>
                </mxCell>
                <mxCell id="A4zvuaYf1DdcraZO9j4I-150" value="model" style="shape=partialRectangle;html=1;whiteSpace=wrap;connectable=0;fillColor=none;top=0;left=0;bottom=0;right=0;align=left;spacingLeft=6;overflow=hidden;strokeColor=#0F8B8D;fontSize=16;labelBackgroundColor=none;fontColor=#143642;" parent="A4zvuaYf1DdcraZO9j4I-148" vertex="1">
                    <mxGeometry x="40" width="140" height="40" as="geometry">
                        <mxRectangle width="140" height="40" as="alternateBounds"/>
                    </mxGeometry>
                </mxCell>
                <mxCell id="A4zvuaYf1DdcraZO9j4I-151" style="shape=tableRow;horizontal=0;startSize=0;swimlaneHead=0;swimlaneBody=0;top=0;left=0;bottom=0;right=0;collapsible=0;dropTarget=0;fillColor=none;points=[[0,0.5],[1,0.5]];portConstraint=eastwest;strokeColor=#0F8B8D;fontSize=16;labelBackgroundColor=none;fontColor=#143642;" parent="A4zvuaYf1DdcraZO9j4I-144" vertex="1">
                    <mxGeometry y="120" width="180" height="40" as="geometry"/>
                </mxCell>
                <mxCell id="A4zvuaYf1DdcraZO9j4I-152" value="3" style="shape=partialRectangle;html=1;whiteSpace=wrap;connectable=0;fillColor=none;top=0;left=0;bottom=0;right=0;overflow=hidden;pointerEvents=1;strokeColor=#0F8B8D;fontSize=16;labelBackgroundColor=none;fontColor=#143642;" parent="A4zvuaYf1DdcraZO9j4I-151" vertex="1">
                    <mxGeometry width="40" height="40" as="geometry">
                        <mxRectangle width="40" height="40" as="alternateBounds"/>
                    </mxGeometry>
                </mxCell>
                <mxCell id="A4zvuaYf1DdcraZO9j4I-153" value="reg_number" style="shape=partialRectangle;html=1;whiteSpace=wrap;connectable=0;fillColor=none;top=0;left=0;bottom=0;right=0;align=left;spacingLeft=6;overflow=hidden;strokeColor=#0F8B8D;fontSize=16;labelBackgroundColor=none;fontColor=#143642;" parent="A4zvuaYf1DdcraZO9j4I-151" vertex="1">
                    <mxGeometry x="40" width="140" height="40" as="geometry">
                        <mxRectangle width="140" height="40" as="alternateBounds"/>
                    </mxGeometry>
                </mxCell>
                <mxCell id="A4zvuaYf1DdcraZO9j4I-154" style="shape=tableRow;horizontal=0;startSize=0;swimlaneHead=0;swimlaneBody=0;top=0;left=0;bottom=0;right=0;collapsible=0;dropTarget=0;fillColor=none;points=[[0,0.5],[1,0.5]];portConstraint=eastwest;strokeColor=#0F8B8D;fontSize=16;labelBackgroundColor=none;fontColor=#143642;" parent="A4zvuaYf1DdcraZO9j4I-144" vertex="1">
                    <mxGeometry y="160" width="180" height="40" as="geometry"/>
                </mxCell>
                <mxCell id="A4zvuaYf1DdcraZO9j4I-155" value="4" style="shape=partialRectangle;html=1;whiteSpace=wrap;connectable=0;fillColor=none;top=0;left=0;bottom=0;right=0;overflow=hidden;pointerEvents=1;strokeColor=#0F8B8D;fontSize=16;labelBackgroundColor=none;fontColor=#143642;" parent="A4zvuaYf1DdcraZO9j4I-154" vertex="1">
                    <mxGeometry width="40" height="40" as="geometry">
                        <mxRectangle width="40" height="40" as="alternateBounds"/>
                    </mxGeometry>
                </mxCell>
                <mxCell id="A4zvuaYf1DdcraZO9j4I-156" value="cc" style="shape=partialRectangle;html=1;whiteSpace=wrap;connectable=0;fillColor=none;top=0;left=0;bottom=0;right=0;align=left;spacingLeft=6;overflow=hidden;strokeColor=#0F8B8D;fontSize=16;labelBackgroundColor=none;fontColor=#143642;" parent="A4zvuaYf1DdcraZO9j4I-154" vertex="1">
                    <mxGeometry x="40" width="140" height="40" as="geometry">
                        <mxRectangle width="140" height="40" as="alternateBounds"/>
                    </mxGeometry>
                </mxCell>
                <mxCell id="A4zvuaYf1DdcraZO9j4I-157" value="" style="shape=tableRow;horizontal=0;startSize=0;swimlaneHead=0;swimlaneBody=0;top=0;left=0;bottom=0;right=0;collapsible=0;dropTarget=0;fillColor=none;points=[[0,0.5],[1,0.5]];portConstraint=eastwest;strokeColor=#0F8B8D;fontSize=16;labelBackgroundColor=none;fontColor=#143642;" parent="A4zvuaYf1DdcraZO9j4I-144" vertex="1">
                    <mxGeometry y="200" width="180" height="40" as="geometry"/>
                </mxCell>
                <mxCell id="A4zvuaYf1DdcraZO9j4I-158" value="5" style="shape=partialRectangle;html=1;whiteSpace=wrap;connectable=0;fillColor=none;top=0;left=0;bottom=0;right=0;overflow=hidden;pointerEvents=1;strokeColor=#0F8B8D;fontSize=16;labelBackgroundColor=none;fontColor=#143642;" parent="A4zvuaYf1DdcraZO9j4I-157" vertex="1">
                    <mxGeometry width="40" height="40" as="geometry">
                        <mxRectangle width="40" height="40" as="alternateBounds"/>
                    </mxGeometry>
                </mxCell>
                <mxCell id="A4zvuaYf1DdcraZO9j4I-159" value="price" style="shape=partialRectangle;html=1;whiteSpace=wrap;connectable=0;fillColor=none;top=0;left=0;bottom=0;right=0;align=left;spacingLeft=6;overflow=hidden;strokeColor=#0F8B8D;fontSize=16;labelBackgroundColor=none;fontColor=#143642;" parent="A4zvuaYf1DdcraZO9j4I-157" vertex="1">
                    <mxGeometry x="40" width="140" height="40" as="geometry">
                        <mxRectangle width="140" height="40" as="alternateBounds"/>
                    </mxGeometry>
                </mxCell>
                <mxCell id="A4zvuaYf1DdcraZO9j4I-160" value="" style="shape=tableRow;horizontal=0;startSize=0;swimlaneHead=0;swimlaneBody=0;top=0;left=0;bottom=0;right=0;collapsible=0;dropTarget=0;fillColor=none;points=[[0,0.5],[1,0.5]];portConstraint=eastwest;strokeColor=#0F8B8D;fontSize=16;labelBackgroundColor=none;fontColor=#143642;" parent="A4zvuaYf1DdcraZO9j4I-144" vertex="1">
                    <mxGeometry y="240" width="180" height="40" as="geometry"/>
                </mxCell>
                <mxCell id="A4zvuaYf1DdcraZO9j4I-161" value="6" style="shape=partialRectangle;html=1;whiteSpace=wrap;connectable=0;fillColor=none;top=0;left=0;bottom=0;right=0;overflow=hidden;pointerEvents=1;strokeColor=#0F8B8D;fontSize=16;labelBackgroundColor=none;fontColor=#143642;" parent="A4zvuaYf1DdcraZO9j4I-160" vertex="1">
                    <mxGeometry width="40" height="40" as="geometry">
                        <mxRectangle width="40" height="40" as="alternateBounds"/>
                    </mxGeometry>
                </mxCell>
                <mxCell id="A4zvuaYf1DdcraZO9j4I-162" value="booked?" style="shape=partialRectangle;html=1;whiteSpace=wrap;connectable=0;fillColor=none;top=0;left=0;bottom=0;right=0;align=left;spacingLeft=6;overflow=hidden;strokeColor=#0F8B8D;fontSize=16;labelBackgroundColor=none;fontColor=#143642;" parent="A4zvuaYf1DdcraZO9j4I-160" vertex="1">
                    <mxGeometry x="40" width="140" height="40" as="geometry">
                        <mxRectangle width="140" height="40" as="alternateBounds"/>
                    </mxGeometry>
                </mxCell>
                <mxCell id="A4zvuaYf1DdcraZO9j4I-163" style="shape=tableRow;horizontal=0;startSize=0;swimlaneHead=0;swimlaneBody=0;top=0;left=0;bottom=0;right=0;collapsible=0;dropTarget=0;fillColor=none;points=[[0,0.5],[1,0.5]];portConstraint=eastwest;strokeColor=#0F8B8D;fontSize=16;labelBackgroundColor=none;fontColor=#143642;" parent="A4zvuaYf1DdcraZO9j4I-144" vertex="1">
                    <mxGeometry y="280" width="180" height="40" as="geometry"/>
                </mxCell>
                <mxCell id="A4zvuaYf1DdcraZO9j4I-164" value="7" style="shape=partialRectangle;html=1;whiteSpace=wrap;connectable=0;fillColor=none;top=0;left=0;bottom=0;right=0;overflow=hidden;pointerEvents=1;strokeColor=#0F8B8D;fontSize=16;labelBackgroundColor=none;fontColor=#143642;" parent="A4zvuaYf1DdcraZO9j4I-163" vertex="1">
                    <mxGeometry width="40" height="40" as="geometry">
                        <mxRectangle width="40" height="40" as="alternateBounds"/>
                    </mxGeometry>
                </mxCell>
                <mxCell id="A4zvuaYf1DdcraZO9j4I-165" value="owner_id" style="shape=partialRectangle;html=1;whiteSpace=wrap;connectable=0;fillColor=none;top=0;left=0;bottom=0;right=0;align=left;spacingLeft=6;overflow=hidden;strokeColor=#0F8B8D;fontSize=16;labelBackgroundColor=none;fontColor=#143642;" parent="A4zvuaYf1DdcraZO9j4I-163" vertex="1">
                    <mxGeometry x="40" width="140" height="40" as="geometry">
                        <mxRectangle width="140" height="40" as="alternateBounds"/>
                    </mxGeometry>
                </mxCell>
                <mxCell id="A4zvuaYf1DdcraZO9j4I-167" style="shape=tableRow;horizontal=0;startSize=0;swimlaneHead=0;swimlaneBody=0;top=0;left=0;bottom=0;right=0;collapsible=0;dropTarget=0;fillColor=none;points=[[0,0.5],[1,0.5]];portConstraint=eastwest;strokeColor=#0F8B8D;fontSize=16;labelBackgroundColor=none;fontColor=#143642;" parent="A4zvuaYf1DdcraZO9j4I-144" vertex="1">
                    <mxGeometry y="320" width="180" height="40" as="geometry"/>
                </mxCell>
                <mxCell id="A4zvuaYf1DdcraZO9j4I-168" value="8" style="shape=partialRectangle;html=1;whiteSpace=wrap;connectable=0;fillColor=none;top=0;left=0;bottom=0;right=0;overflow=hidden;pointerEvents=1;strokeColor=#0F8B8D;fontSize=16;labelBackgroundColor=none;fontColor=#143642;" parent="A4zvuaYf1DdcraZO9j4I-167" vertex="1">
                    <mxGeometry width="40" height="40" as="geometry">
                        <mxRectangle width="40" height="40" as="alternateBounds"/>
                    </mxGeometry>
                </mxCell>
                <mxCell id="A4zvuaYf1DdcraZO9j4I-169" value="rider_id" style="shape=partialRectangle;html=1;whiteSpace=wrap;connectable=0;fillColor=none;top=0;left=0;bottom=0;right=0;align=left;spacingLeft=6;overflow=hidden;strokeColor=#0F8B8D;fontSize=16;labelBackgroundColor=none;fontColor=#143642;" parent="A4zvuaYf1DdcraZO9j4I-167" vertex="1">
                    <mxGeometry x="40" width="140" height="40" as="geometry">
                        <mxRectangle width="140" height="40" as="alternateBounds"/>
                    </mxGeometry>
                </mxCell>
                <mxCell id="A4zvuaYf1DdcraZO9j4I-170" value="" style="edgeStyle=entityRelationEdgeStyle;fontSize=12;html=1;endArrow=ERoneToMany;rounded=0;strokeColor=#A8201A;fontColor=#143642;fillColor=#FAE5C7;exitX=1;exitY=0.5;exitDx=0;exitDy=0;entryX=0;entryY=0.25;entryDx=0;entryDy=0;entryPerimeter=0;" parent="1" source="A4zvuaYf1DdcraZO9j4I-114" target="A4zvuaYf1DdcraZO9j4I-163" edge="1">
                    <mxGeometry width="100" height="100" relative="1" as="geometry">
                        <mxPoint x="370" y="390" as="sourcePoint"/>
                        <mxPoint x="470" y="290" as="targetPoint"/>
                    </mxGeometry>
                </mxCell>
                <mxCell id="A4zvuaYf1DdcraZO9j4I-171" value="" style="edgeStyle=entityRelationEdgeStyle;fontSize=12;html=1;endArrow=ERmandOne;startArrow=ERmandOne;rounded=0;strokeColor=#A8201A;fontColor=#143642;fillColor=#FAE5C7;exitX=1;exitY=0.5;exitDx=0;exitDy=0;entryX=-0.039;entryY=0.545;entryDx=0;entryDy=0;entryPerimeter=0;" parent="1" source="A4zvuaYf1DdcraZO9j4I-167" target="A4zvuaYf1DdcraZO9j4I-79" edge="1">
                    <mxGeometry width="100" height="100" relative="1" as="geometry">
                        <mxPoint x="370" y="490" as="sourcePoint"/>
                        <mxPoint x="470" y="390" as="targetPoint"/>
                    </mxGeometry>
                </mxCell>
            </root>
        </mxGraphModel>
    </diagram>
</mxfile>